<svg width="31" height="30" viewBox="0 0 31 30" fill="none" xmlns="http://www.w3.org/2000/svg">
<path d="M29.3011 0H0.815528C0.398605 0 0.0675201 0.337216 0.0675201 0.748007V14.4083C0.0675201 14.8253 0.404737 15.1563 0.815528 15.1563C1.22632 15.1563 1.56967 14.8191 1.56967 14.4083V1.50215H28.5592V28.4917H15.5672C15.1503 28.4917 14.8131 28.8289 14.8131 29.2459C14.8131 29.6628 15.1503 30 15.5672 30H29.3011C29.718 30 30.0553 29.6628 30.0553 29.2459V0.754139C30.0553 0.337216 29.718 0 29.3011 0Z" fill="white"/>
<path d="M0.0616608 29.2398C0.0616608 29.6567 0.398877 29.9939 0.809668 29.9939H11.2572C11.6742 29.9939 12.0114 29.6567 12.0114 29.2398V18.7983C12.0114 18.3814 11.6742 18.0442 11.2572 18.0442H0.815799C0.398877 18.0442 0.067792 18.3814 0.067792 18.7983V29.2398H0.0616608ZM1.56381 19.5463H10.5092V28.4918H1.56381V19.5463Z" fill="white"/>
<path d="M13.7277 16.3273C13.8748 16.4745 14.0649 16.5481 14.2611 16.5481C14.4573 16.5481 14.6474 16.4745 14.7945 16.3273L23.2924 7.82334V12.7222C23.2924 13.1391 23.6296 13.4763 24.0465 13.4763C24.4634 13.4763 24.8007 13.1391 24.8007 12.7222V6.01464C24.8007 5.59771 24.4634 5.2605 24.0465 5.2605H17.3328C16.9159 5.2605 16.5787 5.59771 16.5787 6.01464C16.5787 6.43156 16.9159 6.76878 17.3328 6.76878H22.2317L13.7277 15.2666C13.4334 15.5609 13.4334 16.033 13.7277 16.3273Z" fill="white"/>
</svg>
